<?xml version="1.0" encoding="UTF-8" standalone="no"?>
<!-- Created with Inkscape (http://www.inkscape.org/) -->

<svg
   width="529.29114"
   height="150"
   id="svg2091"
   sodipodi:version="0.32"
   inkscape:version="1.1.2 (b8e25be833, 2022-02-05)"
   version="1.0"
   sodipodi:docname="onda-electromagnetica.svg"
   xmlns:inkscape="http://www.inkscape.org/namespaces/inkscape"
   xmlns:sodipodi="http://sodipodi.sourceforge.net/DTD/sodipodi-0.dtd"
   xmlns="http://www.w3.org/2000/svg"
   xmlns:svg="http://www.w3.org/2000/svg"
   xmlns:rdf="http://www.w3.org/1999/02/22-rdf-syntax-ns#"
   xmlns:cc="http://creativecommons.org/ns#"
   xmlns:dc="http://purl.org/dc/elements/1.1/">
  <defs
     id="defs2093">
    <marker
       inkscape:stockid="SquareL"
       orient="auto"
       refY="0"
       refX="0"
       id="SquareL"
       style="overflow:visible">
      <path
         id="path4029"
         d="M -5,-5 V 5 H 5 V -5 Z"
         style="fill-rule:evenodd;stroke:#000000;stroke-width:1pt;marker-start:none"
         transform="scale(0.8)" />
    </marker>
    <marker
       inkscape:stockid="TriangleOutL"
       orient="auto"
       refY="0"
       refX="0"
       id="TriangleOutL"
       style="overflow:visible">
      <path
         id="path4002"
         d="M 5.77,0 -2.88,5 V -5 Z"
         style="fill-rule:evenodd;stroke:#000000;stroke-width:1pt;marker-start:none"
         transform="scale(0.8)" />
    </marker>
    <marker
       inkscape:stockid="TriangleInL"
       orient="auto"
       refY="0"
       refX="0"
       id="TriangleInL"
       style="overflow:visible">
      <path
         id="path4011"
         d="M 5.77,0 -2.88,5 V -5 Z"
         style="fill-rule:evenodd;stroke:#000000;stroke-width:1pt;marker-start:none"
         transform="scale(-0.8)" />
    </marker>
  </defs>
  <sodipodi:namedview
     id="base"
     pagecolor="#ffffff"
     bordercolor="#666666"
     borderopacity="1.0"
     inkscape:pageopacity="0.0"
     inkscape:pageshadow="2"
     inkscape:zoom="4.04"
     inkscape:cx="492.32673"
     inkscape:cy="51.732673"
     inkscape:document-units="px"
     inkscape:current-layer="layer1"
     showgrid="true"
     inkscape:grid-points="true"
     inkscape:window-width="1366"
     inkscape:window-height="745"
     inkscape:window-x="-8"
     inkscape:window-y="-8"
     inkscape:pagecheckerboard="0"
     fit-margin-top="0"
     fit-margin-left="0"
     fit-margin-right="0"
     fit-margin-bottom="0"
     inkscape:window-maximized="1" />
  <metadata
     id="metadata2096">
    <rdf:RDF>
      <cc:Work
         rdf:about="">
        <dc:format>image/svg+xml</dc:format>
        <dc:type
           rdf:resource="http://purl.org/dc/dcmitype/StillImage" />
      </cc:Work>
    </rdf:RDF>
  </metadata>
  <g
     inkscape:label="Layer 1"
     id="layer1"
     inkscape:groupmode="layer"
     style="display:inline"
     transform="translate(38.215203,-65.000008)">
    <path
       id="path3917"
       d="m -37.465198,140.00001 c 8.724999,-19.43859 17.449996,-38.75211 26.174995,-52.502667 8.7249991,-13.750575 17.4499966,-21.739698 26.174996,-21.74733 8.724999,-0.0076 17.449996,8.00755 26.174991,21.74733 8.725005,13.739757 17.449995,33.064077 26.175,52.502667 8.725005,19.43859 17.449995,38.75211 26.175,52.50267 8.724986,13.75058 17.449996,21.7397 26.174986,21.74732 8.725,0.007 17.45001,-8.00754 26.175,-21.74732 8.725,-13.73976 17.44999,-33.06408 26.175,-52.50267 8.72499,-19.43859 17.44999,-38.75211 26.17498,-52.502667 8.72501,-13.750575 17.45001,-21.739698 26.175,-21.74733 8.72501,-0.0076 17.45,8.00755 26.175,21.74733 8.72499,13.739757 17.45,33.064077 26.175,52.502667 8.72499,19.43859 17.45,38.75211 26.17499,52.50267 8.725,13.75058 17.44999,21.7397 26.175,21.74732 8.725,0.007 17.44999,-8.00754 26.175,-21.74732 8.72499,-13.73976 17.44999,-33.06408 26.17498,-52.50267 8.72501,-19.43859 17.45001,-38.75211 26.175,-52.502667 8.72501,-13.750575 17.45,-21.739698 26.175,-21.74733 8.72499,-0.0076 17.45,8.00755 26.175,21.74733 8.72499,13.739757 17.45,33.064077 26.17499,52.502667"
       style="opacity:0.98;fill:none;fill-opacity:0.75;stroke:#d88d24;stroke-width:1.5;stroke-linecap:round;stroke-linejoin:miter;stroke-miterlimit:4;stroke-dasharray:none;stroke-opacity:1" />
    <path
       style="color:#000000;display:inline;overflow:visible;visibility:visible;opacity:1;fill:#b20000;fill-opacity:1;fill-rule:nonzero;stroke:#000000;stroke-width:1.13386;stroke-linecap:butt;stroke-linejoin:miter;stroke-miterlimit:4;stroke-dasharray:none;stroke-dashoffset:0;stroke-opacity:1;marker:none;marker-start:none;marker-end:none"
       d="M -38.215186,140 H 486.78481"
       id="path3923" />
    <path
       style="opacity:0.98;fill:none;fill-opacity:0.75;stroke:#ff6921;stroke-width:1.5;stroke-linecap:round;stroke-linejoin:miter;stroke-miterlimit:4;stroke-dasharray:none;stroke-opacity:1"
       d="M -37.465203,140.00001 C -17.517328,125.421 2.3583346,110.9358 19.022223,100.62285 35.686121,90.309873 49.023644,84.318018 57.753044,84.312288 c 8.729415,-0.006 12.82683,6.005685 13.61916,16.310562 0.79236,10.30485 -1.63956,24.79815 -4.13742,39.37716 -2.497875,14.579 -4.923555,29.0642 -4.137435,39.37716 0.78609,10.31297 4.89858,16.30484 13.61916,16.31055 8.720595,0.006 22.073175,-6.00568 38.730821,-16.31055 16.65767,-10.30486 36.53955,-24.79816 56.48744,-39.37716 19.94785,-14.57901 39.82353,-29.06421 56.4874,-39.37716 16.66391,-10.312977 30.00144,-16.304832 38.73084,-16.310562 8.7294,-0.006 12.82683,6.005685 13.61916,16.310562 0.79235,10.30485 -1.63956,24.79815 -4.13742,39.37716 -2.49789,14.579 -4.92355,29.0642 -4.13745,39.37716 0.78611,10.31297 4.89858,16.30484 13.61918,16.31055 8.72059,0.006 22.07316,-6.00568 38.73082,-16.31055 16.65765,-10.30486 36.53955,-24.79816 56.48742,-39.37716 19.94787,-14.57901 39.82355,-29.06421 56.48742,-39.37716 16.66391,-10.312977 30.00143,-16.304832 38.73084,-16.310562 8.72939,-0.006 12.82683,6.005685 13.61916,16.310562 0.79235,10.30485 -1.63956,24.79815 -4.13743,39.37716"
       id="path4132" />
    <g
       id="g1374"
       transform="matrix(1.5,0,0,1.5,-113.21519,-70.000002)">
      <path
         id="path3928"
         d="m 228.17543,135.87498 8.0829,-10.50004"
         style="fill:none;fill-opacity:0.75;fill-rule:evenodd;stroke:#000000;stroke-width:1;stroke-linecap:butt;stroke-linejoin:miter;stroke-miterlimit:4;stroke-dasharray:none;stroke-opacity:1;marker-start:none;marker-mid:none;marker-end:none" />
      <text
         transform="matrix(1.154698,0,-0.666665,0.866027,0,0)"
         id="text4116"
         y="143.44739"
         x="288.20938"
         style="font-style:normal;font-variant:normal;font-weight:normal;font-stretch:normal;line-height:0%;font-family:'Times New Roman';text-align:center;writing-mode:lr-tb;text-anchor:middle;fill:#000000;fill-opacity:1;stroke:none;stroke-width:1px;stroke-linecap:butt;stroke-linejoin:miter;stroke-opacity:1"
         xml:space="preserve"><tspan
           y="143.44739"
           x="288.20938"
           id="tspan4118"
           sodipodi:role="line"
           style="font-size:10.3923px;line-height:1">M</tspan></text>
      <path
         style="fill:none;fill-opacity:0.75;fill-rule:evenodd;stroke:#000000;stroke-width:1;stroke-linecap:butt;stroke-linejoin:miter;stroke-miterlimit:4;stroke-dasharray:none;stroke-opacity:1;marker-start:none;marker-mid:none;marker-end:none"
         d="m 242.60921,117.12488 8.0829,-10.50004"
         id="path4120" />
      <path
         transform="matrix(0.69282,0,-0.397093,0.515842,127.6868,63.91338)"
         d="m 225,147.5 -6.49519,-11.25 12.99038,0 z"
         inkscape:randomized="0"
         inkscape:rounded="0"
         inkscape:flatsided="true"
         sodipodi:arg2="2.6179939"
         sodipodi:arg1="1.5707963"
         sodipodi:r2="2.236068"
         sodipodi:r1="7.5"
         sodipodi:cy="140"
         sodipodi:cx="225"
         sodipodi:sides="3"
         id="path4134"
         style="opacity:0.98;fill:#000000;fill-opacity:1;stroke:none;stroke-width:1;stroke-linecap:round;stroke-linejoin:miter;stroke-miterlimit:4;stroke-dasharray:12, 1;stroke-dashoffset:0;stroke-opacity:1"
         sodipodi:type="star" />
      <path
         sodipodi:type="star"
         style="opacity:0.98;fill:#000000;fill-opacity:1;stroke:none;stroke-width:1;stroke-linecap:round;stroke-linejoin:miter;stroke-miterlimit:4;stroke-dasharray:12, 1;stroke-dashoffset:0;stroke-opacity:1"
         id="path4136"
         sodipodi:sides="3"
         sodipodi:cx="225"
         sodipodi:cy="140"
         sodipodi:r1="7.5"
         sodipodi:r2="2.236068"
         sodipodi:arg1="1.5707963"
         sodipodi:arg2="2.6179939"
         inkscape:flatsided="true"
         inkscape:rounded="0"
         inkscape:randomized="0"
         d="m 225,147.5 -6.49519,-11.25 12.99038,0 z"
         transform="matrix(0.69282,0,0.397094,-0.515842,39.41134,178.587)" />
    </g>
    <rect
       style="opacity:1;fill:#ffffff;stroke:none;stroke-width:1.47"
       id="rect2031"
       width="16.089109"
       height="20.79208"
       x="426.28879"
       y="91.918007" />
    <g
       id="g1382"
       transform="matrix(1.5,0,0,1.5,-113.21519,-70.000002)">
      <path
         style="fill:none;fill-opacity:0.75;fill-rule:evenodd;stroke:#000000;stroke-width:1;stroke-linecap:butt;stroke-linejoin:miter;stroke-miterlimit:4;stroke-dasharray:none;stroke-opacity:1;marker-start:none;marker-mid:none;marker-end:none"
         d="m 365,134.5 v -14"
         id="path4138" />
      <text
         xml:space="preserve"
         style="font-style:normal;font-variant:normal;font-weight:normal;font-stretch:normal;line-height:0%;font-family:'Times New Roman';text-align:center;writing-mode:lr-tb;text-anchor:middle;fill:#000000;fill-opacity:1;stroke:none;stroke-width:1px;stroke-linecap:butt;stroke-linejoin:miter;stroke-opacity:1"
         x="365.01758"
         y="118.97264"
         id="text4140"><tspan
           y="118.97264"
           x="365.01758"
           id="tspan4150"
           sodipodi:role="line"
           style="font-size:12px;line-height:1">E</tspan></text>
      <path
         id="path4144"
         d="M 365,109.49996 V 95.499965"
         style="fill:none;fill-opacity:0.75;fill-rule:evenodd;stroke:#000000;stroke-width:1;stroke-linecap:butt;stroke-linejoin:miter;stroke-miterlimit:4;stroke-dasharray:none;stroke-opacity:1;marker-start:none;marker-mid:none;marker-end:none" />
      <path
         sodipodi:type="star"
         style="opacity:0.98;fill:#000000;fill-opacity:1;stroke:none;stroke-width:1;stroke-linecap:round;stroke-linejoin:miter;stroke-miterlimit:4;stroke-dasharray:12, 1;stroke-dashoffset:0;stroke-opacity:1"
         id="path4146"
         sodipodi:sides="3"
         sodipodi:cx="225"
         sodipodi:cy="140"
         sodipodi:r1="7.5"
         sodipodi:r2="2.236068"
         sodipodi:arg1="1.5707963"
         sodipodi:arg2="2.6179939"
         inkscape:flatsided="true"
         inkscape:rounded="0"
         inkscape:randomized="0"
         d="m 225,147.5 -6.49519,-11.25 12.99038,0 z"
         transform="matrix(0.69282,0,0,0.687786,209.1155,38.55157)" />
      <path
         transform="matrix(0.69282,0,0,-0.687787,209.1155,191.449)"
         d="m 225,147.5 -6.49519,-11.25 12.99038,0 z"
         inkscape:randomized="0"
         inkscape:rounded="0"
         inkscape:flatsided="true"
         sodipodi:arg2="2.6179939"
         sodipodi:arg1="1.5707963"
         sodipodi:r2="2.236068"
         sodipodi:r1="7.5"
         sodipodi:cy="140"
         sodipodi:cx="225"
         sodipodi:sides="3"
         id="path4148"
         style="opacity:0.98;fill:#000000;fill-opacity:1;stroke:none;stroke-width:1;stroke-linecap:round;stroke-linejoin:miter;stroke-miterlimit:4;stroke-dasharray:12, 1;stroke-dashoffset:0;stroke-opacity:1"
         sodipodi:type="star" />
    </g>
  </g>
</svg>
