<?xml version="1.0" encoding="UTF-8" standalone="no"?>
<!-- Created with Inkscape (http://www.inkscape.org/) -->

<svg
   version="1.1"
   width="298.35114"
   height="234.55225"
   viewBox="-7.667 -2.207 298.35113 234.55224"
   id="Layer_1"
   xml:space="preserve"
   style="overflow:visible"
   sodipodi:docname="atomo-salto.svg"
   inkscape:version="1.1.2 (b8e25be833, 2022-02-05)"
   xmlns:inkscape="http://www.inkscape.org/namespaces/inkscape"
   xmlns:sodipodi="http://sodipodi.sourceforge.net/DTD/sodipodi-0.dtd"
   xmlns="http://www.w3.org/2000/svg"
   xmlns:svg="http://www.w3.org/2000/svg"
   xmlns:rdf="http://www.w3.org/1999/02/22-rdf-syntax-ns#"
   xmlns:cc="http://creativecommons.org/ns#"
   xmlns:dc="http://purl.org/dc/elements/1.1/"><sodipodi:namedview
     id="namedview4831"
     pagecolor="#ffffff"
     bordercolor="#666666"
     borderopacity="1.0"
     inkscape:pageshadow="2"
     inkscape:pageopacity="0.0"
     inkscape:pagecheckerboard="0"
     showgrid="false"
     inkscape:zoom="2.1592593"
     inkscape:cx="264.44253"
     inkscape:cy="111.14923"
     inkscape:window-width="1366"
     inkscape:window-height="745"
     inkscape:window-x="-8"
     inkscape:window-y="-8"
     inkscape:window-maximized="1"
     inkscape:current-layer="Layer_1"
     fit-margin-top="0"
     fit-margin-left="0"
     fit-margin-right="0"
     fit-margin-bottom="0" /><metadata
     id="metadata105"><rdf:RDF><cc:Work
         rdf:about=""><dc:format>image/svg+xml</dc:format><dc:type
           rdf:resource="http://purl.org/dc/dcmitype/StillImage" /></cc:Work></rdf:RDF></metadata><defs
     id="defs103" /><ellipse
     cx="109.32861"
     cy="115.06912"
     id="circle3-1"
     style="overflow:visible;fill:none;stroke:#c3c3c3;stroke-width:2;stroke-miterlimit:4;stroke-dasharray:none"
     rx="115.99561"
     ry="116.27612" /><circle
     cx="109.32861"
     cy="115.06912"
     r="52.222"
     id="circle3"
     style="fill:none;stroke:#c3c3c3;stroke-width:2" /><circle
     cx="109.32861"
     cy="115.06912"
     r="11.75"
     id="circle5"
     style="fill:none;stroke:#c3c3c3;stroke-width:2" /><circle
     cx="109.32861"
     cy="115.06912"
     r="3.625"
     id="circle9" /><g
     id="g11"
     transform="translate(-9.5358738,-24.168007)"><g
       id="g13"><line
         x1="220.228"
         y1="79.456001"
         x2="178.787"
         y2="103.425"
         id="line15"
         stroke-width="2"
         stroke="#0000FF"
         fill="none"
         style="fill:#000000;stroke:#00000f;stroke-width:2;stroke-opacity:1" /><path
         d="m 175.726,107.564 c 3.361,-0.791 5.685,-1.071 8.512,-1.478 l -5.051,-8.733 c -0.597,0.866 -3.162,4.123 -5.524,6.642 -2.527,2.698 -4.938,4.938 -6.61,6.205 1.928,-0.815 5.073,-1.788 8.673,-2.636 z"
         inkscape:connector-curvature="0"
         id="path17"
         style="fill:#000000;fill-opacity:1" /></g></g><circle
     cx="209.29012"
     cy="55.887993"
     r="3.625"
     id="circle19"
     style="fill:#ffffff;fill-opacity:1;stroke:#d88d24;stroke-opacity:1" /><circle
     cx="154.17511"
     cy="87.97599"
     r="3.625"
     id="circle21"
     style="fill:#d88d24;fill-opacity:1" /><g
     id="g57"
     transform="translate(-9.5358738,-24.168007)"><path
       d="m 130.884,158.969 v -3.922 h -3.891 v -1.641 h 3.891 v -3.891 h 1.656 v 3.891 h 3.891 v 1.641 h -3.891 v 3.922 z"
       inkscape:connector-curvature="0"
       id="path59"
       style="fill:none" /></g><g
     id="g61"
     transform="translate(-9.5358738,-24.168007)"><path
       d="m 138.064,161.297 0.188,-1.422 7.18,-8.57 1.484,-1.796 c 0.303,-0.361 0.601,-0.709 0.892,-1.04 -0.608,0.076 -1.033,0.114 -1.275,0.114 l -0.471,-0.01 -0.568,0.01 -0.56,0.011 h -4.835 l 0.342,-1.625 h 9.889 l -0.17,1.478 -7.701,9.155 c -0.936,1.126 -1.53,1.831 -1.782,2.117 0.286,-0.052 0.472,-0.078 0.556,-0.078 h 7.794 l -0.342,1.656 z"
       inkscape:connector-curvature="0"
       id="path63"
       style="fill:none" /><path
       d="m 158.101,157.797 1.719,0.156 c -0.248,0.852 -0.818,1.661 -1.709,2.428 -0.892,0.767 -1.955,1.15 -3.188,1.15 -0.771,0 -1.478,-0.178 -2.12,-0.533 -0.645,-0.355 -1.133,-0.872 -1.47,-1.551 -0.337,-0.678 -0.505,-1.451 -0.505,-2.318 0,-1.135 0.264,-2.235 0.789,-3.302 0.525,-1.067 1.205,-1.859 2.041,-2.377 0.836,-0.52 1.74,-0.778 2.713,-0.778 1.24,0 2.23,0.386 2.971,1.155 0.741,0.771 1.111,1.821 1.111,3.153 0,0.509 -0.045,1.031 -0.137,1.566 h -7.66 c -0.031,0.202 -0.047,0.384 -0.047,0.546 0,0.97 0.225,1.709 0.674,2.22 0.448,0.511 0.996,0.766 1.645,0.766 0.609,0 1.209,-0.195 1.799,-0.587 0.587,-0.391 1.045,-0.956 1.374,-1.694 z m -5.161,-2.594 h 5.846 c 0.007,-0.184 0.01,-0.314 0.01,-0.394 0,-0.891 -0.223,-1.574 -0.666,-2.05 -0.445,-0.476 -1.018,-0.713 -1.717,-0.713 -0.76,0 -1.451,0.263 -2.075,0.786 -0.624,0.526 -1.091,1.316 -1.398,2.371 z"
       inkscape:connector-curvature="0"
       id="path65"
       style="fill:none" /></g><g
     id="g67"
     transform="translate(-9.5358738,-24.168007)"><path
       d="m 291.392,109.41 c -3.308,-0.999 -5.457,-1.919 -8.107,-2.983 v 10.089 c 0.947,-0.451 4.802,-1.985 8.107,-2.983 3.539,-1.069 6.748,-1.801 8.828,-2.062 -2.08,-0.261 -5.289,-0.992 -8.828,-2.061 z"
       inkscape:connector-curvature="0"
       id="path69"
       style="fill:#ff0870;fill-opacity:1" /><g
       id="g71"><path
         d="m 262.005,111.46 c 0,0 -4.001,17 -8.334,0 -4.333,-17 -8.334,0 -8.334,0 0,0 -4.001,17 -8.334,0 -4.333,-17 -8.334,0 -8.334,0 0,0 -4.001,17 -8.334,0 -4.333,-17 -8.334,0 -8.334,0 0,0 -4.001,17 -8.334,0 -4.333,-17 -8.334,0 -8.334,0"
         inkscape:connector-curvature="0"
         id="path73"
         style="fill:none;stroke:#ff0870;stroke-width:2;stroke-opacity:1" /><line
         x1="277.99899"
         y1="111.46"
         x2="286.66699"
         y2="111.46"
         id="line75"
         stroke-width="2"
         stroke="#FF0B0B"
         fill="none"
         style="fill:none;stroke:#ff0870;stroke-width:2;stroke-opacity:1" /><g
         id="g77"><g
           id="g79"><path
             d="m 277.999,111.46 h -7.66 c -4.333,-17 -8.334,0 -8.334,0"
             inkscape:connector-curvature="0"
             id="path81"
             style="fill:none;stroke:#ff0870;stroke-width:2;stroke-opacity:1" /></g></g></g></g></svg>
