<?xml version="1.0" encoding="UTF-8" standalone="no"?>
<!-- Created with Inkscape (http://www.inkscape.org/) -->

<svg
   version="1.1"
   width="239.51013"
   height="234.55225"
   viewBox="-7.667 -2.207 239.51013 234.55224"
   id="Layer_1"
   xml:space="preserve"
   style="overflow:visible"
   sodipodi:docname="atomo.svg"
   inkscape:version="1.1.2 (b8e25be833, 2022-02-05)"
   xmlns:inkscape="http://www.inkscape.org/namespaces/inkscape"
   xmlns:sodipodi="http://sodipodi.sourceforge.net/DTD/sodipodi-0.dtd"
   xmlns="http://www.w3.org/2000/svg"
   xmlns:svg="http://www.w3.org/2000/svg"
   xmlns:rdf="http://www.w3.org/1999/02/22-rdf-syntax-ns#"
   xmlns:cc="http://creativecommons.org/ns#"
   xmlns:dc="http://purl.org/dc/elements/1.1/"><sodipodi:namedview
     id="namedview4831"
     pagecolor="#ffffff"
     bordercolor="#666666"
     borderopacity="1.0"
     inkscape:pageshadow="2"
     inkscape:pageopacity="0.0"
     inkscape:pagecheckerboard="0"
     showgrid="false"
     inkscape:zoom="2.1592593"
     inkscape:cx="140.09434"
     inkscape:cy="110.22298"
     inkscape:window-width="1366"
     inkscape:window-height="745"
     inkscape:window-x="-8"
     inkscape:window-y="-8"
     inkscape:window-maximized="1"
     inkscape:current-layer="Layer_1"
     fit-margin-top="0"
     fit-margin-left="0"
     fit-margin-right="0"
     fit-margin-bottom="0" /><metadata
     id="metadata105"><rdf:RDF><cc:Work
         rdf:about=""><dc:format>image/svg+xml</dc:format><dc:type
           rdf:resource="http://purl.org/dc/dcmitype/StillImage" /></cc:Work></rdf:RDF></metadata><defs
     id="defs103" /><circle
     cx="113.19214"
     cy="113.2072"
     r="52.222"
     id="circle3"
     style="fill:none;stroke:#c3c3c3;stroke-width:2" /><ellipse
     cx="112.48552"
     cy="115.06912"
     id="circle3-1"
     style="overflow:visible;fill:none;stroke:#c3c3c3;stroke-width:2;stroke-miterlimit:4;stroke-dasharray:none"
     rx="115.99561"
     ry="116.27612" /><circle
     cx="113.19214"
     cy="113.2072"
     r="11.75"
     id="circle5"
     style="fill:none;stroke:#c3c3c3;stroke-width:2" /><circle
     cx="113.19214"
     cy="113.2072"
     r="3.625"
     id="circle9" /><circle
     cx="228.21812"
     cy="113.05821"
     r="3.625"
     id="circle19"
     style="fill:#d88d24;fill-opacity:1" /><circle
     cx="-4.0419998"
     cy="113.05821"
     r="3.625"
     id="circle19-5"
     style="overflow:visible;fill:#d88d24;fill-opacity:1" /><circle
     cx="165.40314"
     cy="113.0582"
     r="3.625"
     id="circle21"
     style="fill:#d88d24;fill-opacity:1" /><circle
     cx="61.254738"
     cy="113.0582"
     r="3.625"
     id="circle21-4"
     style="overflow:visible;fill:#d88d24;fill-opacity:1" /><circle
     cx="124.97687"
     cy="113.13248"
     r="3.625"
     id="circle21-7"
     style="overflow:visible;fill:#d88d24;fill-opacity:1" /><g
     id="g57"
     transform="translate(-5.3078617,-25.085793)"><path
       d="m 130.884,158.969 v -3.922 h -3.891 v -1.641 h 3.891 v -3.891 h 1.656 v 3.891 h 3.891 v 1.641 h -3.891 v 3.922 z"
       inkscape:connector-curvature="0"
       id="path59"
       style="fill:none" /></g><g
     id="g61"
     transform="translate(-5.3078617,-25.085793)"><path
       d="m 138.064,161.297 0.188,-1.422 7.18,-8.57 1.484,-1.796 c 0.303,-0.361 0.601,-0.709 0.892,-1.04 -0.608,0.076 -1.033,0.114 -1.275,0.114 l -0.471,-0.01 -0.568,0.01 -0.56,0.011 h -4.835 l 0.342,-1.625 h 9.889 l -0.17,1.478 -7.701,9.155 c -0.936,1.126 -1.53,1.831 -1.782,2.117 0.286,-0.052 0.472,-0.078 0.556,-0.078 h 7.794 l -0.342,1.656 z"
       inkscape:connector-curvature="0"
       id="path63"
       style="fill:none" /><path
       d="m 158.101,157.797 1.719,0.156 c -0.248,0.852 -0.818,1.661 -1.709,2.428 -0.892,0.767 -1.955,1.15 -3.188,1.15 -0.771,0 -1.478,-0.178 -2.12,-0.533 -0.645,-0.355 -1.133,-0.872 -1.47,-1.551 -0.337,-0.678 -0.505,-1.451 -0.505,-2.318 0,-1.135 0.264,-2.235 0.789,-3.302 0.525,-1.067 1.205,-1.859 2.041,-2.377 0.836,-0.52 1.74,-0.778 2.713,-0.778 1.24,0 2.23,0.386 2.971,1.155 0.741,0.771 1.111,1.821 1.111,3.153 0,0.509 -0.045,1.031 -0.137,1.566 h -7.66 c -0.031,0.202 -0.047,0.384 -0.047,0.546 0,0.97 0.225,1.709 0.674,2.22 0.448,0.511 0.996,0.766 1.645,0.766 0.609,0 1.209,-0.195 1.799,-0.587 0.587,-0.391 1.045,-0.956 1.374,-1.694 z m -5.161,-2.594 h 5.846 c 0.007,-0.184 0.01,-0.314 0.01,-0.394 0,-0.891 -0.223,-1.574 -0.666,-2.05 -0.445,-0.476 -1.018,-0.713 -1.717,-0.713 -0.76,0 -1.451,0.263 -2.075,0.786 -0.624,0.526 -1.091,1.316 -1.398,2.371 z"
       inkscape:connector-curvature="0"
       id="path65"
       style="fill:none" /></g><circle
     cx="101.06263"
     cy="113.09131"
     r="3.625"
     id="circle21-5"
     style="overflow:visible;fill:#d88d24;fill-opacity:1" /><circle
     cx="152.40314"
     cy="148.12047"
     r="3.625"
     id="circle21-0"
     style="overflow:visible;fill:#d88d24;fill-opacity:1" /><circle
     cx="73.355141"
     cy="148.12021"
     r="3.625"
     id="circle21-0-4"
     style="overflow:visible;fill:#d88d24;fill-opacity:1" /><circle
     cx="113.19214"
     cy="164.75168"
     r="3.625"
     id="circle21-0-2"
     style="overflow:visible;fill:#d88d24;fill-opacity:1" /><circle
     cx="113.26847"
     cy="60.243958"
     r="3.625"
     id="circle21-0-2-4"
     style="overflow:visible;fill:#d88d24;fill-opacity:1" /><circle
     cx="152.40314"
     cy="79.27655"
     r="3.625"
     id="circle21-0-4-7"
     style="overflow:visible;fill:#d88d24;fill-opacity:1" /><circle
     cx="73.079781"
     cy="79.276207"
     r="3.625"
     id="circle21-0-4-7-9"
     style="overflow:visible;fill:#d88d24;fill-opacity:1" /></svg>
