<?xml version="1.0" encoding="UTF-8" standalone="no"?>
<!-- Created with Inkscape (http://www.inkscape.org/) -->

<svg
   width="525.28558"
   height="40.591984"
   id="svg2091"
   sodipodi:version="0.32"
   inkscape:version="1.1.2 (b8e25be833, 2022-02-05)"
   version="1.0"
   sodipodi:docname="baja-energia.svg"
   xmlns:inkscape="http://www.inkscape.org/namespaces/inkscape"
   xmlns:sodipodi="http://sodipodi.sourceforge.net/DTD/sodipodi-0.dtd"
   xmlns="http://www.w3.org/2000/svg"
   xmlns:svg="http://www.w3.org/2000/svg"
   xmlns:rdf="http://www.w3.org/1999/02/22-rdf-syntax-ns#"
   xmlns:cc="http://creativecommons.org/ns#"
   xmlns:dc="http://purl.org/dc/elements/1.1/">
  <defs
     id="defs2093">
    <marker
       inkscape:stockid="SquareL"
       orient="auto"
       refY="0"
       refX="0"
       id="SquareL"
       style="overflow:visible">
      <path
         id="path4029"
         d="M -5,-5 V 5 H 5 V -5 Z"
         style="fill-rule:evenodd;stroke:#000000;stroke-width:1pt;marker-start:none"
         transform="scale(0.8)" />
    </marker>
    <marker
       inkscape:stockid="TriangleOutL"
       orient="auto"
       refY="0"
       refX="0"
       id="TriangleOutL"
       style="overflow:visible">
      <path
         id="path4002"
         d="M 5.77,0 -2.88,5 V -5 Z"
         style="fill-rule:evenodd;stroke:#000000;stroke-width:1pt;marker-start:none"
         transform="scale(0.8)" />
    </marker>
    <marker
       inkscape:stockid="TriangleInL"
       orient="auto"
       refY="0"
       refX="0"
       id="TriangleInL"
       style="overflow:visible">
      <path
         id="path4011"
         d="M 5.77,0 -2.88,5 V -5 Z"
         style="fill-rule:evenodd;stroke:#000000;stroke-width:1pt;marker-start:none"
         transform="scale(-0.8)" />
    </marker>
  </defs>
  <sodipodi:namedview
     id="base"
     pagecolor="#ffffff"
     bordercolor="#666666"
     borderopacity="1.0"
     inkscape:pageopacity="0.0"
     inkscape:pageshadow="2"
     inkscape:zoom="1.75"
     inkscape:cx="452"
     inkscape:cy="-36.571429"
     inkscape:document-units="px"
     inkscape:current-layer="layer1"
     showgrid="true"
     inkscape:grid-points="true"
     inkscape:window-width="1366"
     inkscape:window-height="745"
     inkscape:window-x="-8"
     inkscape:window-y="-8"
     inkscape:pagecheckerboard="0"
     fit-margin-top="0"
     fit-margin-left="0"
     fit-margin-right="0"
     fit-margin-bottom="0"
     inkscape:window-maximized="1" />
  <metadata
     id="metadata2096">
    <rdf:RDF>
      <cc:Work
         rdf:about="">
        <dc:format>image/svg+xml</dc:format>
        <dc:type
           rdf:resource="http://purl.org/dc/dcmitype/StillImage" />
      </cc:Work>
    </rdf:RDF>
  </metadata>
  <g
     inkscape:label="Layer 1"
     id="layer1"
     inkscape:groupmode="layer"
     style="display:inline"
     transform="translate(38.215186,-193.41277)">
    <path
       style="color:#000000;display:inline;overflow:visible;visibility:visible;opacity:1;fill:#b20000;fill-opacity:1;fill-rule:nonzero;stroke:#000000;stroke-width:2;stroke-linecap:butt;stroke-linejoin:miter;stroke-miterlimit:0;stroke-dasharray:none;stroke-dashoffset:0;stroke-opacity:1;marker:none;marker-start:none;marker-end:none"
       d="M -38.215186,213.70876 H 486.78481"
       id="path3923" />
    <path
       id="path3917"
       d="m -37.179484,213.70876 c 8.724999,-5.11712 17.449996,-10.20132 26.174995,-13.8211 8.7249994,-3.61978 17.4499969,-5.72288 26.174996,-5.72489 8.724999,-0.002 17.449996,2.10795 26.174991,5.72489 8.725005,3.61693 17.449995,8.70398 26.175,13.8211 8.725005,5.11713 17.449995,10.20133 26.175,13.8211 8.724982,3.61979 17.449992,5.72289 26.174982,5.72489 8.725,0.002 17.45001,-2.10795 26.175,-5.72489 8.725,-3.61693 17.44999,-8.70397 26.175,-13.8211 8.72499,-5.11712 17.44999,-10.20132 26.17498,-13.8211 8.72501,-3.61978 17.45001,-5.72288 26.175,-5.72489 8.72501,-0.002 17.45,2.10795 26.175,5.72489 8.72499,3.61693 17.45,8.70398 26.175,13.8211 8.72499,5.11713 17.45,10.20133 26.17499,13.8211 8.725,3.61979 17.44999,5.72289 26.175,5.72489 8.725,0.002 17.44999,-2.10795 26.175,-5.72489 8.72499,-3.61693 17.44999,-8.70397 26.17498,-13.8211 8.72501,-5.11712 17.45001,-10.20132 26.175,-13.8211 8.72501,-3.61978 17.45,-5.72288 26.175,-5.72489 8.72499,-0.002 17.45,2.10795 26.175,5.72489 8.72499,3.61693 17.45,8.70398 26.17499,13.8211"
       style="opacity:0.98;fill:none;fill-opacity:0.75;stroke:#d88d24;stroke-width:1.5;stroke-linecap:round;stroke-linejoin:miter;stroke-miterlimit:4;stroke-dasharray:none;stroke-opacity:1" />
  </g>
</svg>
